<?xml version="1.0" standalone="no"?>
<!DOCTYPE svg PUBLIC "-//W3C//DTD SVG 20010904//EN"
 "http://www.w3.org/TR/2001/REC-SVG-20010904/DTD/svg10.dtd">
<svg version="1.0" xmlns="http://www.w3.org/2000/svg"
 width="224.000000pt" height="224.000000pt" viewBox="0 0 224.000000 224.000000"
 preserveAspectRatio="xMidYMid meet">

<g transform="translate(0.000000,224.000000) scale(0.100000,-0.100000)"
fill="#000000" stroke="none">
<path d="M1061 2191 c-23 -23 -26 -61 -10 -131 6 -25 7 -66 4 -91 l-7 -47 -49
-6 c-74 -10 -197 -57 -261 -99 l-56 -38 -45 27 c-28 18 -56 46 -76 81 -37 62
-61 77 -106 69 -39 -8 -53 -22 -61 -62 -7 -39 22 -76 93 -116 33 -19 58 -41
64 -57 6 -14 15 -28 21 -32 6 -4 1 -21 -13 -47 -13 -22 -39 -66 -57 -97 -19
-32 -38 -83 -44 -114 -21 -118 -19 -115 -68 -124 -32 -7 -60 -5 -107 8 -60 16
-64 16 -95 -2 -29 -17 -33 -24 -33 -63 0 -39 4 -46 33 -63 30 -18 37 -18 95
-5 36 8 85 12 113 9 l49 -6 13 -64 c13 -69 67 -179 120 -250 24 -31 31 -46 23
-54 -6 -6 -11 -19 -11 -28 0 -18 -35 -49 -56 -49 -6 0 -14 13 -17 29 -9 43
-64 101 -122 127 -77 36 -80 35 -81 -47 -2 -77 -11 -95 -55 -103 -32 -5 -105
-42 -114 -57 -4 -5 12 -26 34 -46 39 -33 71 -79 71 -103 0 -5 -23 -32 -51 -58
l-51 -48 58 -56 c169 -160 367 -266 629 -335 58 -15 108 -18 290 -18 196 0
230 3 310 23 127 32 312 111 390 167 17 11 42 27 57 35 15 7 76 60 135 116
l108 103 -47 44 c-27 24 -48 52 -48 61 0 28 39 95 65 112 14 9 25 20 25 26 0
12 -99 58 -126 58 -27 0 -32 12 -40 95 -7 72 -14 76 -67 48 -73 -37 -95 -64
-121 -147 -6 -17 -8 -17 -28 -4 -12 8 -30 29 -40 47 -18 32 -18 32 13 77 49
71 91 174 96 235 l6 56 48 11 c38 9 58 8 98 -4 58 -17 95 -11 116 19 21 30 19
63 -6 88 -20 20 -28 21 -105 15 -46 -4 -99 -4 -118 -1 -33 7 -35 10 -41 58
-11 77 -38 146 -89 225 l-46 72 17 37 c13 27 31 44 63 59 59 28 83 56 82 95
-1 38 -37 79 -69 79 -38 0 -60 -17 -89 -68 -29 -51 -98 -107 -117 -95 -7 4
-28 19 -47 35 -41 32 -181 90 -260 108 -55 12 -56 13 -67 58 -8 35 -7 58 3 96
8 28 14 61 14 72 0 60 -96 98 -139 55z m85 -362 c10 -17 -13 -36 -27 -22 -12
12 -4 33 11 33 5 0 12 -5 16 -11z m-83 -156 c9 -17 11 -36 7 -48 -4 -11 -5
-64 -2 -117 3 -62 1 -98 -5 -98 -6 0 -32 27 -59 59 -27 33 -66 67 -87 77 -38
17 -57 40 -57 67 0 13 58 44 135 71 55 19 53 19 68 -11z m275 -24 c81 -36 84
-59 12 -109 -19 -14 -46 -38 -60 -54 -45 -54 -70 -79 -74 -75 -2 2 -7 45 -10
94 -3 50 -8 105 -12 123 -14 69 25 75 144 21z m-608 6 c0 -8 -9 -15 -20 -15
-11 0 -20 7 -20 15 0 8 9 15 20 15 11 0 20 -7 20 -15z m825 -6 c10 -15 -1 -23
-20 -15 -9 3 -13 10 -10 16 8 13 22 13 30 -1z m-731 -188 c9 -16 28 -37 44
-47 16 -11 46 -38 67 -62 l38 -43 -105 2 c-58 1 -110 -1 -117 -5 -6 -4 -25 -5
-41 -1 -26 6 -30 11 -30 41 0 33 39 133 62 161 14 18 64 -10 82 -46z m736 -34
c29 -58 39 -110 22 -121 -4 -2 -68 -1 -141 2 l-135 7 52 53 c29 28 57 52 62
52 5 0 16 15 25 34 18 38 53 59 72 44 7 -6 26 -37 43 -71z m-338 -58 c37 -27
58 -73 58 -129 0 -135 -163 -187 -251 -81 -24 29 -29 45 -29 89 0 60 18 102
53 125 48 31 121 30 169 -4z m-657 -108 c7 -12 -12 -24 -25 -16 -11 7 -4 25
10 25 5 0 11 -4 15 -9z m1155 -6 c0 -8 -4 -15 -10 -15 -5 0 -10 7 -10 15 0 8
5 15 10 15 6 0 10 -7 10 -15z m-750 -74 c0 -8 -18 -27 -105 -111 -9 -8 -27
-30 -42 -48 -37 -47 -59 -40 -99 33 -30 56 -48 118 -38 128 9 9 284 6 284 -2z
m625 -10 c7 -23 -9 -74 -41 -129 -15 -26 -28 -49 -30 -50 -9 -12 -49 16 -70
49 -13 21 -28 39 -33 39 -9 0 -111 94 -111 103 0 3 63 6 140 5 120 0 140 -3
145 -17z m-515 -175 c0 -47 4 -96 10 -110 12 -32 -5 -76 -29 -75 -17 0 -133
46 -164 65 -26 15 -8 55 35 81 18 11 53 43 78 71 25 28 51 51 58 52 9 0 12
-23 12 -84z m215 24 c33 -33 64 -60 71 -60 13 0 39 -28 47 -52 8 -23 -22 -43
-110 -75 -65 -23 -68 -24 -81 -6 -9 12 -11 30 -7 53 8 45 8 42 0 128 -10 92 0
93 80 12z m280 -149 c7 -12 -12 -24 -25 -16 -11 7 -4 25 10 25 5 0 11 -4 15
-9z m-825 -16 c0 -8 -7 -15 -15 -15 -8 0 -15 7 -15 15 0 8 7 15 15 15 8 0 15
-7 15 -15z m874 -136 c19 -11 48 -42 65 -68 17 -26 43 -53 59 -60 l27 -13 -30
-25 c-129 -106 -363 -203 -490 -203 -34 0 -34 0 -23 31 9 25 7 43 -6 85 -14
45 -15 60 -5 94 8 25 18 40 28 40 42 0 212 64 266 99 33 22 63 40 67 40 4 1
23 -8 42 -20z m-830 -30 c38 -23 83 -45 100 -50 17 -4 56 -15 86 -23 30 -9 66
-16 80 -16 22 0 28 -7 39 -46 10 -35 11 -51 2 -70 -14 -31 -14 -99 -1 -125 9
-17 7 -19 -17 -19 -54 0 -156 21 -252 52 -91 29 -154 60 -264 131 l-48 31 33
17 c21 11 44 36 61 67 24 44 74 89 101 91 6 1 41 -18 80 -40z m381 12 c7 -12
-12 -24 -25 -16 -11 7 -4 25 10 25 5 0 11 -4 15 -9z m631 -252 c3 -6 1 -15 -6
-19 -9 -6 -8 -14 5 -34 10 -14 21 -26 26 -26 15 0 10 -18 -8 -24 -11 -5 -26 5
-47 30 -26 33 -31 35 -37 18 -7 -19 -7 -19 -15 0 -5 15 0 25 22 43 32 25 49
29 60 12z m-1298 -22 c6 -7 8 -24 5 -37 -5 -20 -4 -22 13 -15 69 28 83 11 34
-42 -17 -18 -30 -37 -30 -42 0 -6 -5 -11 -12 -11 -21 0 -48 33 -48 58 0 14 -3
22 -7 18 -5 -4 -8 -12 -8 -17 0 -5 -3 -9 -7 -9 -5 0 -12 0 -18 0 -18 0 -11 17
20 50 17 18 30 38 30 46 0 18 14 18 28 1z m1210 -92 c-8 -18 -8 -28 1 -39 10
-12 8 -17 -8 -25 -27 -15 -31 -14 -31 9 0 12 -11 32 -25 46 -32 32 -31 36 8
56 30 15 33 15 49 -3 14 -16 15 -25 6 -44z m-1079 16 c9 -6 11 -16 7 -27 -6
-15 -5 -17 5 -6 14 13 49 17 49 5 0 -5 -15 -15 -33 -23 -23 -11 -33 -23 -35
-42 -4 -31 -31 -38 -52 -13 -8 9 -8 15 -2 15 14 0 26 38 23 73 -3 28 11 35 38
18z m976 -21 c3 -5 -3 -10 -14 -10 -22 0 -28 -14 -11 -25 6 -3 10 -1 10 5 0 6
5 8 11 5 6 -4 8 -20 4 -38 l-6 -32 19 22 c20 22 32 21 32 -4 0 -7 -16 -20 -36
-28 -44 -18 -44 -18 -44 -1 0 7 -11 30 -25 51 -29 42 -29 40 5 54 33 13 47 13
55 1z m-855 -35 c0 -8 -4 -15 -8 -15 -5 0 -13 -16 -19 -35 -11 -34 -10 -35 14
-35 22 0 24 -2 12 -16 -8 -10 -21 -13 -38 -9 -39 10 -44 20 -27 53 9 17 16 40
16 52 0 15 6 20 25 20 16 0 25 -6 25 -15z m768 -19 c3 -15 0 -18 -21 -12 -34
8 -41 -7 -18 -35 17 -21 22 -22 40 -11 25 14 29 -1 7 -24 -27 -26 -64 -16 -85
23 -15 30 -14 40 10 64 24 24 62 22 67 -5z m-639 -56 c16 -76 15 -82 -16 -78
-20 2 -27 8 -25 21 2 10 -3 17 -13 17 -8 0 -15 -4 -15 -10 0 -13 -27 -13 -35
1 -4 6 2 17 14 25 12 9 28 28 36 45 23 44 42 37 54 -21z m526 41 c-3 -5 0 -30
7 -55 14 -54 6 -67 -25 -38 -30 29 -39 28 -31 -3 5 -21 3 -25 -15 -25 -13 0
-19 5 -15 14 3 7 -2 31 -11 52 -20 48 -5 59 43 31 l35 -20 -11 20 c-6 11 -8
23 -5 27 10 10 35 7 28 -3z m-386 -27 c3 -3 1 -8 -5 -12 -5 -4 -21 -22 -34
-41 l-24 -34 27 7 c28 7 33 1 19 -22 -6 -8 -21 -10 -48 -6 -21 3 -40 7 -42 9
-2 2 8 22 22 44 25 39 25 41 6 41 -14 0 -18 5 -13 16 5 13 14 15 47 10 22 -4
43 -9 45 -12z m270 -26 c14 -25 14 -29 -5 -55 -26 -35 -50 -40 -75 -17 -22 20
-26 73 -7 92 22 22 71 10 87 -20z m-119 2 c0 -23 -10 -26 -28 -8 -9 9 -15 9
-24 0 -15 -15 5 -62 27 -62 8 0 15 -5 15 -11 0 -6 -16 -9 -37 -7 -31 2 -39 8
-47 30 -7 18 -6 35 2 53 10 21 18 25 52 25 33 0 40 -3 40 -20z"/>
<path d="M1084 1351 c-32 -14 -54 -56 -54 -105 0 -37 5 -48 32 -71 62 -52 104
-53 160 -3 29 25 33 35 32 74 -1 62 -42 105 -105 110 -24 2 -53 0 -65 -5z m91
-15 c34 -15 65 -59 65 -95 0 -28 -45 -78 -77 -84 -58 -11 -123 39 -123 94 0
33 42 86 73 92 12 2 23 5 25 6 1 0 18 -5 37 -13z"/>
<path d="M1089 1289 c-34 -34 -12 -91 41 -104 34 -8 80 27 80 61 0 57 -79 85
-121 43z"/>
<path d="M489 323 c-13 -16 -12 -17 4 -4 9 7 17 15 17 17 0 8 -8 3 -21 -13z"/>
<path d="M1681 353 c7 -10 15 -20 16 -22 2 -2 3 3 3 11 0 9 -7 19 -16 22 -15
6 -15 4 -3 -11z"/>
<path d="M1235 211 c-6 -11 15 -61 27 -61 9 0 10 16 2 48 -7 23 -19 29 -29 13z"/>
</g>
</svg>
